<svg xmlns="http://www.w3.org/2000/svg" width="660" height="300" viewBox="0 0 660 300"><rect width="660" height="300" rx="16" fill="#10141e"/><g font-family="Arial,Helvetica,sans-serif"><text x="30" y="45" font-size="11" letter-spacing="2" fill="#e9edff">PWA / SERVICES &amp; BOOKING</text><text x="28" y="125" font-size="44" font-weight="700" letter-spacing="-2" fill="#e9edff">DETAILING</text><text x="30" y="163" font-size="16" fill="#e9edff">Мобильный интерфейс</text><rect x="30" y="211" width="126" height="34" rx="17" fill="#557bff"/><text x="47" y="233" font-size="11" fill="#e9edff">ДЕМОПРОЕКТ ↗</text></g><g transform="translate(425 37) rotate(8 85 110)"><rect width="162" height="232" rx="25" fill="#e9edff"/><rect x="7" y="7" width="148" height="218" rx="20" fill="#10141e"/><rect x="52" y="14" width="58" height="8" rx="4" fill="#e9edff"/><rect x="20" y="43" width="122" height="72" rx="12" fill="#557bff"/><circle cx="80" cy="77" r="23" fill="none" stroke="#e9edff" stroke-width="2"/><path d="M68 77l8 8 16-17" fill="none" stroke="#e9edff" stroke-width="3"/><g fill="#e9edff" opacity=".25"><rect x="21" y="133" width="87" height="7" rx="3"/><rect x="21" y="150" width="113" height="5" rx="2"/><rect x="21" y="166" width="97" height="5" rx="2"/></g><rect x="21" y="188" width="119" height="21" rx="7" fill="#557bff"/></g></svg>